<svg viewBox="0 0 137 44" xmlns="http://www.w3.org/2000/svg" xmlns:xlink="http://www.w3.org/1999/xlink" width="137.000000" height="44.000000" fill="none" customFrame="#000000">
	<g id="Лого">
		<path id="NETCLICKS" d="M16.1165 5.77273L16.1165 23.2273L12.929 23.2273L5.33523 12.2415L5.20739 12.2415L5.20739 23.2273L1.51705 23.2273L1.51705 5.77273L4.75568 5.77273L12.2898 16.75L12.4432 16.75L12.4432 5.77273L16.1165 5.77273ZM19.1655 23.2273L19.1655 5.77273L30.9268 5.77273L30.9268 8.81534L22.8558 8.81534L22.8558 12.9744L30.3217 12.9744L30.3217 16.017L22.8558 16.017L22.8558 20.1847L30.9609 20.1847L30.9609 23.2273L19.1655 23.2273ZM33.196 8.81534L33.196 5.77273L47.5312 5.77273L47.5312 8.81534L42.1875 8.81534L42.1875 23.2273L38.5398 23.2273L38.5398 8.81534L33.196 8.81534ZM64.4957 11.8835L60.7628 11.8835C60.6946 11.4006 60.5554 10.9716 60.3452 10.5966C60.1349 10.2159 59.8651 9.89204 59.5355 9.625C59.206 9.35795 58.8253 9.15341 58.3935 9.01136C57.9673 8.86932 57.5043 8.7983 57.0043 8.7983C56.1009 8.7983 55.3139 9.02273 54.6435 9.47159C53.973 9.91477 53.4531 10.5625 53.0838 11.4148C52.7145 12.2614 52.5298 13.2898 52.5298 14.5C52.5298 15.7443 52.7145 16.7898 53.0838 17.6364C53.4588 18.483 53.9815 19.1222 54.652 19.554C55.3224 19.9858 56.098 20.2017 56.9787 20.2017C57.473 20.2017 57.9304 20.1364 58.3509 20.0057C58.777 19.875 59.1548 19.6847 59.4844 19.4347C59.8139 19.179 60.0866 18.8693 60.3026 18.5057C60.5241 18.142 60.6776 17.7273 60.7628 17.2614L64.4957 17.2784C64.3991 18.0795 64.1577 18.8523 63.7713 19.5966C63.3906 20.3352 62.8764 20.9972 62.2287 21.5824C61.5866 22.1619 60.8196 22.6222 59.9276 22.9631C59.0412 23.2983 58.0384 23.4659 56.919 23.4659C55.3622 23.4659 53.9702 23.1136 52.7429 22.4091C51.5213 21.7045 50.5554 20.6847 49.8452 19.3494C49.1406 18.0142 48.7884 16.3977 48.7884 14.5C48.7884 12.5966 49.1463 10.9773 49.8622 9.64205C50.5781 8.30682 51.5497 7.28977 52.777 6.59091C54.0043 5.88636 55.3849 5.53409 56.919 5.53409C57.9304 5.53409 58.8679 5.67614 59.7315 5.96023C60.6009 6.24432 61.3707 6.65909 62.0412 7.20454C62.7116 7.74432 63.2571 8.40625 63.6776 9.19034C64.1037 9.97443 64.3764 10.8722 64.4957 11.8835ZM67.142 23.2273L67.142 5.77273L70.8324 5.77273L70.8324 20.1847L78.3153 20.1847L78.3153 23.2273L67.142 23.2273ZM84.4496 5.77273L84.4496 23.2273L80.7592 23.2273L80.7592 5.77273L84.4496 5.77273ZM102.886 11.8835L99.1534 11.8835C99.0852 11.4006 98.946 10.9716 98.7358 10.5966C98.5256 10.2159 98.2557 9.89204 97.9261 9.625C97.5966 9.35795 97.2159 9.15341 96.7841 9.01136C96.358 8.86932 95.8949 8.7983 95.3949 8.7983C94.4915 8.7983 93.7045 9.02273 93.0341 9.47159C92.3636 9.91477 91.8438 10.5625 91.4744 11.4148C91.1051 12.2614 90.9205 13.2898 90.9205 14.5C90.9205 15.7443 91.1051 16.7898 91.4744 17.6364C91.8494 18.483 92.3722 19.1222 93.0426 19.554C93.7131 19.9858 94.4886 20.2017 95.3693 20.2017C95.8636 20.2017 96.321 20.1364 96.7415 20.0057C97.1676 19.875 97.5455 19.6847 97.875 19.4347C98.2045 19.179 98.4773 18.8693 98.6932 18.5057C98.9148 18.142 99.0682 17.7273 99.1534 17.2614L102.886 17.2784C102.79 18.0795 102.548 18.8523 102.162 19.5966C101.781 20.3352 101.267 20.9972 100.619 21.5824C99.9773 22.1619 99.2102 22.6222 98.3182 22.9631C97.4318 23.2983 96.429 23.4659 95.3097 23.4659C93.7528 23.4659 92.3608 23.1136 91.1335 22.4091C89.9119 21.7045 88.946 20.6847 88.2358 19.3494C87.5312 18.0142 87.179 16.3977 87.179 14.5C87.179 12.5966 87.5369 10.9773 88.2528 9.64205C88.9688 8.30682 89.9403 7.28977 91.1676 6.59091C92.3949 5.88636 93.7756 5.53409 95.3097 5.53409C96.321 5.53409 97.2585 5.67614 98.1222 5.96023C98.9915 6.24432 99.7614 6.65909 100.432 7.20454C101.102 7.74432 101.648 8.40625 102.068 9.19034C102.494 9.97443 102.767 10.8722 102.886 11.8835ZM105.533 23.2273L105.533 5.77273L109.223 5.77273L109.223 13.4687L109.453 13.4687L115.734 5.77273L120.158 5.77273L113.68 13.5881L120.234 23.2273L115.82 23.2273L111.038 16.0511L109.223 18.267L109.223 23.2273L105.533 23.2273ZM131.408 10.7926C131.339 10.1051 131.047 9.57102 130.53 9.19034C130.013 8.80966 129.311 8.61932 128.425 8.61932C127.822 8.61932 127.314 8.70454 126.899 8.875C126.484 9.03977 126.166 9.26989 125.945 9.56534C125.729 9.86079 125.621 10.196 125.621 10.571C125.609 10.8835 125.675 11.1562 125.817 11.3892C125.964 11.6222 126.166 11.8239 126.422 11.9943C126.678 12.1591 126.973 12.304 127.308 12.429C127.643 12.5483 128.001 12.6506 128.382 12.7358L129.95 13.1108C130.712 13.2812 131.411 13.5085 132.047 13.7926C132.683 14.0767 133.234 14.4261 133.7 14.8409C134.166 15.2557 134.527 15.7443 134.783 16.3068C135.044 16.8693 135.178 17.5142 135.183 18.2415C135.178 19.3097 134.905 20.2358 134.365 21.0199C133.831 21.7983 133.058 22.4034 132.047 22.8352C131.041 23.2614 129.828 23.4744 128.408 23.4744C126.999 23.4744 125.771 23.2585 124.726 22.8267C123.686 22.3949 122.874 21.7557 122.288 20.9091C121.709 20.0568 121.405 19.0028 121.376 17.7472L124.947 17.7472C124.987 18.3324 125.155 18.821 125.45 19.2131C125.751 19.5994 126.152 19.892 126.652 20.0909C127.158 20.2841 127.729 20.3807 128.365 20.3807C128.99 20.3807 129.533 20.2898 129.993 20.108C130.459 19.9261 130.82 19.6733 131.075 19.3494C131.331 19.0256 131.459 18.6534 131.459 18.233C131.459 17.8409 131.342 17.5114 131.109 17.2443C130.882 16.9773 130.547 16.75 130.104 16.5625C129.666 16.375 129.129 16.2045 128.493 16.0511L126.592 15.5739C125.121 15.2159 123.959 14.6562 123.107 13.8949C122.254 13.1335 121.831 12.108 121.837 10.8182C121.831 9.76136 122.112 8.83807 122.68 8.0483C123.254 7.25852 124.041 6.64204 125.041 6.19886C126.041 5.75568 127.178 5.53409 128.45 5.53409C129.746 5.53409 130.876 5.75568 131.842 6.19886C132.814 6.64204 133.57 7.25852 134.109 8.0483C134.649 8.83807 134.928 9.75284 134.945 10.7926L131.408 10.7926Z" fill="rgb(0,0,0)" fill-rule="nonzero" />
		<path id="всё о сериалах" d="M1.00142 40.8636L1.00142 34.3182L3.57955 34.3182C4.27557 34.3182 4.82386 34.4688 5.22443 34.7699C5.62784 35.071 5.82955 35.4773 5.82955 35.9886C5.82955 36.3778 5.71733 36.6889 5.4929 36.9219C5.26847 37.1548 4.96733 37.3196 4.58949 37.4162C4.84233 37.4588 5.0767 37.5511 5.29261 37.6932C5.51136 37.8352 5.68892 38.0227 5.82528 38.2557C5.96165 38.4886 6.02983 38.767 6.02983 39.0909C6.02983 39.4318 5.9446 39.7358 5.77415 40.0028C5.60369 40.2699 5.36364 40.4801 5.05398 40.6335C4.74432 40.7869 4.37784 40.8636 3.95455 40.8636L1.00142 40.8636ZM1.72585 40.1605L3.95455 40.1605C4.35511 40.1605 4.67188 40.0582 4.90483 39.8537C5.13778 39.6463 5.25426 39.3707 5.25426 39.027C5.25426 38.6605 5.14347 38.3679 4.92188 38.1491C4.70312 37.9276 4.40909 37.8168 4.03977 37.8168L1.72585 37.8168L1.72585 40.1605ZM1.72585 37.1435L3.62642 37.1435C3.92188 37.1435 4.17756 37.098 4.39347 37.0071C4.60938 36.9162 4.77557 36.7884 4.89205 36.6236C5.01136 36.456 5.0696 36.2599 5.06676 36.0355C5.06676 35.7145 4.93608 35.4659 4.67472 35.2898C4.41335 35.1108 4.0483 35.0213 3.57955 35.0213L1.72585 35.0213L1.72585 37.1435ZM10.2496 41C9.66442 41 9.15447 40.8537 8.71982 40.5611C8.288 40.2685 7.95277 39.8679 7.71413 39.3594C7.4755 38.8509 7.35618 38.2713 7.35618 37.6207C7.35618 36.9645 7.47692 36.3807 7.7184 35.8693C7.96271 35.358 8.30078 34.9574 8.7326 34.6676C9.16442 34.375 9.66584 34.2287 10.2369 34.2287C10.6744 34.2287 11.0707 34.3139 11.4258 34.4844C11.7809 34.652 12.0735 34.8892 12.3036 35.196C12.5366 35.5 12.6829 35.8551 12.7425 36.2614L11.9755 36.2614C11.896 35.892 11.7042 35.5767 11.4002 35.3153C11.0991 35.0511 10.7156 34.919 10.2496 34.919C9.83203 34.919 9.46271 35.0327 9.14169 35.2599C8.82067 35.4844 8.56925 35.7983 8.38743 36.2017C8.20845 36.6023 8.11896 37.0668 8.11896 37.5952C8.11896 38.1264 8.20703 38.5966 8.38317 39.0057C8.5593 39.4119 8.80646 39.7301 9.12465 39.9602C9.44567 40.1903 9.82067 40.3054 10.2496 40.3054C10.5394 40.3054 10.8036 40.2514 11.0423 40.1435C11.2837 40.0327 11.4854 39.8764 11.6474 39.6747C11.8121 39.473 11.9229 39.233 11.9798 38.9545L12.7468 38.9545C12.69 39.3494 12.5494 39.7017 12.3249 40.0114C12.1033 40.3182 11.815 40.5597 11.4599 40.7358C11.1076 40.9119 10.7042 41 10.2496 41ZM17.0188 41C16.408 41 15.8796 40.858 15.4336 40.5739C14.9876 40.2869 14.6424 39.8906 14.3981 39.3849C14.1566 38.8764 14.0359 38.2912 14.0359 37.6293C14.0359 36.9702 14.1566 36.3849 14.3981 35.8736C14.6424 35.3594 14.979 34.9574 15.408 34.6676C15.8398 34.375 16.3384 34.2287 16.9038 34.2287C17.2589 34.2287 17.6012 34.294 17.9308 34.4247C18.2603 34.5526 18.5558 34.75 18.8171 35.017C19.0813 35.2812 19.2901 35.6151 19.4435 36.0185C19.5969 36.419 19.6737 36.8935 19.6737 37.4418L19.6737 37.8168L14.56 37.8168L14.56 37.1477L18.8981 37.1477C18.8981 36.7273 18.8129 36.3494 18.6424 36.0142C18.4748 35.6761 18.2404 35.4091 17.9393 35.2131C17.641 35.017 17.2958 34.919 16.9038 34.919C16.489 34.919 16.1239 35.0298 15.8086 35.2514C15.4933 35.473 15.2461 35.7656 15.0671 36.1293C14.891 36.4929 14.8015 36.8906 14.7987 37.3224L14.7987 37.723C14.7987 38.2429 14.8881 38.6974 15.0671 39.0866C15.2489 39.473 15.506 39.7727 15.8384 39.9858C16.1708 40.1989 16.5643 40.3054 17.0188 40.3054C17.3285 40.3054 17.5998 40.2571 17.8327 40.1605C18.0685 40.0639 18.266 39.9347 18.4251 39.7727C18.587 39.608 18.7092 39.4276 18.7915 39.2315L19.5117 39.4659C19.4123 39.7415 19.2489 39.9957 19.0217 40.2287C18.7972 40.4616 18.516 40.6491 18.1779 40.7912C17.8427 40.9304 17.4563 41 17.0188 41ZM15.7745 33.1932C15.6296 33.1932 15.5018 33.1392 15.391 33.0312C15.283 32.9205 15.229 32.7926 15.229 32.6477C15.229 32.4915 15.283 32.3622 15.391 32.2599C15.5018 32.1548 15.6296 32.1023 15.7745 32.1023C15.9308 32.1023 16.06 32.1548 16.1623 32.2599C16.2674 32.3622 16.32 32.4915 16.32 32.6477C16.32 32.7926 16.2674 32.9205 16.1623 33.0312C16.06 33.1392 15.9308 33.1932 15.7745 33.1932ZM17.9563 33.1932C17.8114 33.1932 17.6836 33.1392 17.5728 33.0312C17.4648 32.9205 17.4109 32.7926 17.4109 32.6477C17.4109 32.4915 17.4648 32.3622 17.5728 32.2599C17.6836 32.1548 17.8114 32.1023 17.9563 32.1023C18.1126 32.1023 18.2418 32.1548 18.3441 32.2599C18.4492 32.3622 18.5018 32.4915 18.5018 32.6477C18.5018 32.7926 18.4492 32.9205 18.3441 33.0312C18.2418 33.1392 18.1126 33.1932 17.9563 33.1932ZM27.2642 41C26.6989 41 26.1989 40.8565 25.7642 40.5696C25.3324 40.2827 24.9943 39.8864 24.75 39.3807C24.5057 38.8722 24.3835 38.2855 24.3835 37.6207C24.3835 36.9503 24.5057 36.3608 24.75 35.8523C24.9943 35.3409 25.3324 34.9432 25.7642 34.6591C26.1989 34.3722 26.6989 34.2287 27.2642 34.2287C27.8295 34.2287 28.3281 34.3722 28.7599 34.6591C29.1918 34.946 29.5298 35.3438 29.7741 35.8523C30.0213 36.3608 30.1449 36.9503 30.1449 37.6207C30.1449 38.2855 30.0227 38.8722 29.7784 39.3807C29.5341 39.8864 29.1946 40.2827 28.7599 40.5696C28.3281 40.8565 27.8295 41 27.2642 41ZM27.2642 40.3054C27.7188 40.3054 28.1037 40.1832 28.419 39.9389C28.7344 39.6946 28.973 39.3693 29.1349 38.9631C29.2997 38.5568 29.3821 38.1094 29.3821 37.6207C29.3821 37.1321 29.2997 36.6832 29.1349 36.2741C28.973 35.8651 28.7344 35.5369 28.419 35.2898C28.1037 35.0426 27.7188 34.919 27.2642 34.919C26.8125 34.919 26.4276 35.0426 26.1094 35.2898C25.794 35.5369 25.554 35.8651 25.3892 36.2741C25.2273 36.6832 25.1463 37.1321 25.1463 37.6207C25.1463 38.1094 25.2273 38.5568 25.3892 38.9631C25.554 39.3693 25.794 39.6946 26.1094 39.9389C26.4247 40.1832 26.8097 40.3054 27.2642 40.3054ZM37.7418 41C37.1566 41 36.6467 40.8537 36.212 40.5611C35.7802 40.2685 35.445 39.8679 35.2063 39.3594C34.9677 38.8509 34.8484 38.2713 34.8484 37.6207C34.8484 36.9645 34.9691 36.3807 35.2106 35.8693C35.4549 35.358 35.793 34.9574 36.2248 34.6676C36.6566 34.375 37.158 34.2287 37.729 34.2287C38.1665 34.2287 38.5629 34.3139 38.918 34.4844C39.2731 34.652 39.5657 34.8892 39.7958 35.196C40.0288 35.5 40.1751 35.8551 40.2347 36.2614L39.4677 36.2614C39.3881 35.892 39.1964 35.5767 38.8924 35.3153C38.5913 35.0511 38.2077 34.919 37.7418 34.919C37.3242 34.919 36.9549 35.0327 36.6339 35.2599C36.3129 35.4844 36.0614 35.7983 35.8796 36.2017C35.7006 36.6023 35.6111 37.0668 35.6111 37.5952C35.6111 38.1264 35.6992 38.5966 35.8754 39.0057C36.0515 39.4119 36.2987 39.7301 36.6168 39.9602C36.9379 40.1903 37.3129 40.3054 37.7418 40.3054C38.0316 40.3054 38.2958 40.2514 38.5344 40.1435C38.7759 40.0327 38.9776 39.8764 39.1396 39.6747C39.3043 39.473 39.4151 39.233 39.4719 38.9545L40.239 38.9545C40.1822 39.3494 40.0415 39.7017 39.8171 40.0114C39.5955 40.3182 39.3072 40.5597 38.9521 40.7358C38.5998 40.9119 38.1964 41 37.7418 41ZM44.511 41C43.9002 41 43.3718 40.858 42.9258 40.5739C42.4798 40.2869 42.1346 39.8906 41.8903 39.3849C41.6488 38.8764 41.5281 38.2912 41.5281 37.6293C41.5281 36.9702 41.6488 36.3849 41.8903 35.8736C42.1346 35.3594 42.4712 34.9574 42.9002 34.6676C43.332 34.375 43.8306 34.2287 44.396 34.2287C44.7511 34.2287 45.0934 34.294 45.4229 34.4247C45.7525 34.5526 46.0479 34.75 46.3093 35.017C46.5735 35.2812 46.7823 35.6151 46.9357 36.0185C47.0891 36.419 47.1658 36.8935 47.1658 37.4418L47.1658 37.8168L42.0522 37.8168L42.0522 37.1477L46.3903 37.1477C46.3903 36.7273 46.305 36.3494 46.1346 36.0142C45.967 35.6761 45.7326 35.4091 45.4315 35.2131C45.1332 35.017 44.788 34.919 44.396 34.919C43.9812 34.919 43.6161 35.0298 43.3008 35.2514C42.9854 35.473 42.7383 35.7656 42.5593 36.1293C42.3832 36.4929 42.2937 36.8906 42.2908 37.3224L42.2908 37.723C42.2908 38.2429 42.3803 38.6974 42.5593 39.0866C42.7411 39.473 42.9982 39.7727 43.3306 39.9858C43.663 40.1989 44.0565 40.3054 44.511 40.3054C44.8207 40.3054 45.092 40.2571 45.3249 40.1605C45.5607 40.0639 45.7582 39.9347 45.9173 39.7727C46.0792 39.608 46.2014 39.4276 46.2837 39.2315L47.0039 39.4659C46.9045 39.7415 46.7411 39.9957 46.5138 40.2287C46.2894 40.4616 46.0082 40.6491 45.6701 40.7912C45.3349 40.9304 44.9485 41 44.511 41ZM48.8374 43.3182L48.8374 34.3182L49.5746 34.3182L49.5746 35.5668L49.6641 35.5668C49.755 35.3707 49.88 35.1705 50.0391 34.9659C50.1982 34.7585 50.4084 34.5838 50.6697 34.4418C50.9339 34.2997 51.2663 34.2287 51.6669 34.2287C52.2067 34.2287 52.6783 34.3707 53.0817 34.6548C53.4879 34.9361 53.8033 35.331 54.0277 35.8395C54.255 36.3452 54.3686 36.9347 54.3686 37.608C54.3686 38.2841 54.255 38.8764 54.0277 39.3849C53.8033 39.8935 53.4879 40.2898 53.0817 40.5739C52.6783 40.858 52.2095 41 51.6754 41C51.2805 41 50.9496 40.929 50.6825 40.7869C50.4183 40.6449 50.2038 40.4702 50.0391 40.2628C49.8771 40.0526 49.7521 39.848 49.6641 39.6491L49.5959 39.6491L49.5959 43.3182L48.8374 43.3182ZM49.5874 37.5952C49.5874 38.1236 49.6655 38.5923 49.8217 39.0014C49.9808 39.4077 50.2081 39.7273 50.5036 39.9602C50.8018 40.1903 51.1626 40.3054 51.5859 40.3054C52.0206 40.3054 52.3871 40.1861 52.6854 39.9474C52.9865 39.706 53.2152 39.3807 53.3714 38.9716C53.5305 38.5625 53.6101 38.1037 53.6101 37.5952C53.6101 37.0923 53.532 36.6392 53.3757 36.2358C53.2223 35.8324 52.995 35.5128 52.6939 35.277C52.3928 35.0384 52.0234 34.919 51.5859 34.919C51.1598 34.919 50.7976 35.0341 50.4993 35.2642C50.201 35.4915 49.9737 35.8068 49.8175 36.2102C49.6641 36.6108 49.5874 37.0724 49.5874 37.5952ZM56.7912 39.7855L60.2472 34.3182L61.1548 34.3182L61.1548 40.8636L60.3963 40.8636L60.3963 35.3963L56.9531 40.8636L56.0327 40.8636L56.0327 34.3182L56.7912 34.3182L56.7912 39.7855ZM64.9858 41.0128C64.5909 41.0128 64.2301 40.9361 63.9034 40.7827C63.5767 40.6264 63.3168 40.402 63.1236 40.1094C62.9304 39.8139 62.8338 39.456 62.8338 39.0355C62.8338 38.7116 62.8949 38.4389 63.017 38.2173C63.1392 37.9957 63.3125 37.8139 63.5369 37.6719C63.7614 37.5298 64.027 37.4176 64.3338 37.3352C64.6406 37.2528 64.9787 37.1889 65.348 37.1435C65.7145 37.098 66.0241 37.0582 66.277 37.0241C66.5327 36.9901 66.7273 36.9361 66.8608 36.8622C66.9943 36.7884 67.0611 36.669 67.0611 36.5043L67.0611 36.3509C67.0611 35.9048 66.9276 35.554 66.6605 35.2983C66.3963 35.0398 66.0156 34.9105 65.5185 34.9105C65.0469 34.9105 64.6619 35.0142 64.3636 35.2216C64.0682 35.429 63.8608 35.6733 63.7415 35.9545L63.0213 35.6946C63.169 35.3366 63.3736 35.0511 63.6349 34.8381C63.8963 34.6222 64.1889 34.4673 64.5128 34.3736C64.8366 34.277 65.1648 34.2287 65.4972 34.2287C65.7472 34.2287 66.0071 34.2614 66.277 34.3267C66.5497 34.392 66.8026 34.5057 67.0355 34.6676C67.2685 34.8267 67.4574 35.0497 67.6023 35.3366C67.7472 35.6207 67.8196 35.9815 67.8196 36.419L67.8196 40.8636L67.0611 40.8636L67.0611 39.8281L67.0142 39.8281C66.9233 40.0213 66.7884 40.2088 66.6094 40.3906C66.4304 40.5724 66.206 40.7216 65.9361 40.8381C65.6662 40.9545 65.3494 41.0128 64.9858 41.0128ZM65.0881 40.3182C65.4915 40.3182 65.8409 40.2287 66.1364 40.0497C66.4318 39.8707 66.6591 39.6335 66.8182 39.3381C66.9801 39.0398 67.0611 38.7116 67.0611 38.3537L67.0611 37.4077C67.0043 37.4616 66.9091 37.5099 66.7756 37.5526C66.6449 37.5952 66.4929 37.6335 66.3196 37.6676C66.1491 37.6989 65.9787 37.7259 65.8082 37.7486C65.6378 37.7713 65.4844 37.7912 65.348 37.8082C64.9787 37.8537 64.6634 37.9247 64.402 38.0213C64.1406 38.1179 63.9403 38.2514 63.8011 38.4219C63.6619 38.5895 63.5923 38.8054 63.5923 39.0696C63.5923 39.4673 63.7344 39.7756 64.0185 39.9943C64.3026 40.2102 64.6591 40.3182 65.0881 40.3182ZM69.1939 40.8636L69.1939 40.1477L69.3984 40.1477C69.6314 40.1477 69.8189 40.1051 69.9609 40.0199C70.1058 39.9318 70.218 39.7841 70.2976 39.5767C70.3771 39.3693 70.4368 39.0866 70.4766 38.7287C70.5163 38.3707 70.5476 37.9219 70.5703 37.3821L70.7109 34.3182L74.87 34.3182L74.87 40.8636L74.1072 40.8636L74.1072 35.0341L71.4311 35.0341L71.3075 37.6378C71.282 38.169 71.2393 38.6364 71.1797 39.0398C71.1229 39.4432 71.0291 39.7798 70.8984 40.0497C70.7706 40.3196 70.5916 40.5227 70.3615 40.6591C70.1342 40.7955 69.8359 40.8636 69.4666 40.8636L69.1939 40.8636ZM78.7085 41.0128C78.3136 41.0128 77.9528 40.9361 77.6261 40.7827C77.2994 40.6264 77.0394 40.402 76.8462 40.1094C76.6531 39.8139 76.5565 39.456 76.5565 39.0355C76.5565 38.7116 76.6175 38.4389 76.7397 38.2173C76.8619 37.9957 77.0352 37.8139 77.2596 37.6719C77.484 37.5298 77.7496 37.4176 78.0565 37.3352C78.3633 37.2528 78.7013 37.1889 79.0707 37.1435C79.4371 37.098 79.7468 37.0582 79.9996 37.0241C80.2553 36.9901 80.4499 36.9361 80.5835 36.8622C80.717 36.7884 80.7837 36.669 80.7837 36.5043L80.7837 36.3509C80.7837 35.9048 80.6502 35.554 80.3832 35.2983C80.119 35.0398 79.7383 34.9105 79.2411 34.9105C78.7695 34.9105 78.3846 35.0142 78.0863 35.2216C77.7908 35.429 77.5835 35.6733 77.4641 35.9545L76.744 35.6946C76.8917 35.3366 77.0962 35.0511 77.3576 34.8381C77.619 34.6222 77.9116 34.4673 78.2354 34.3736C78.5593 34.277 78.8874 34.2287 79.2198 34.2287C79.4698 34.2287 79.7298 34.2614 79.9996 34.3267C80.2724 34.392 80.5252 34.5057 80.7582 34.6676C80.9911 34.8267 81.18 35.0497 81.3249 35.3366C81.4698 35.6207 81.5423 35.9815 81.5423 36.419L81.5423 40.8636L80.7837 40.8636L80.7837 39.8281L80.7369 39.8281C80.646 40.0213 80.511 40.2088 80.332 40.3906C80.1531 40.5724 79.9286 40.7216 79.6587 40.8381C79.3888 40.9545 79.0721 41.0128 78.7085 41.0128ZM78.8107 40.3182C79.2141 40.3182 79.5636 40.2287 79.859 40.0497C80.1545 39.8707 80.3817 39.6335 80.5408 39.3381C80.7028 39.0398 80.7837 38.7116 80.7837 38.3537L80.7837 37.4077C80.7269 37.4616 80.6317 37.5099 80.4982 37.5526C80.3675 37.5952 80.2156 37.6335 80.0423 37.6676C79.8718 37.6989 79.7013 37.7259 79.5309 37.7486C79.3604 37.7713 79.207 37.7912 79.0707 37.8082C78.7013 37.8537 78.386 37.9247 78.1246 38.0213C77.8633 38.1179 77.663 38.2514 77.5238 38.4219C77.3846 38.5895 77.315 38.8054 77.315 39.0696C77.315 39.4673 77.457 39.7756 77.7411 39.9943C78.0252 40.2102 78.3817 40.3182 78.8107 40.3182ZM84.0288 34.3182L85.7163 37.1094L87.4038 34.3182L88.2859 34.3182L86.1808 37.5909L88.2859 40.8636L87.4038 40.8636L85.7163 38.1619L84.0288 40.8636L83.1509 40.8636L85.2305 37.5909L83.1509 34.3182L84.0288 34.3182Z" fill="rgb(0,0,0)" fill-rule="nonzero" />
	</g>
</svg>
